<?xml version="1.0" encoding="utf-8"?>
<svg viewBox="0 0 245 75" xmlns="http://www.w3.org/2000/svg" xmlns:bx="https://boxy-svg.com">
  <g transform="matrix(0.765485, 0, 0, 0.767242, -41.328964, -40.580574)" style="" bx:origin="-0.062677 -0.181458">
    <path style="stroke: rgb(0, 0, 0); paint-order: fill; stroke-width: 0px; fill: rgb(223, 41, 53);" d="M 80.336 65.597 L 59.216 86.03 L 70.695 96.818 L 80.796 86.03 L 80.796 135.616 L 101.457 135.616 L 101.457 76.157 L 80.336 65.597 Z"/>
    <path style="stroke: rgb(0, 0, 0); paint-order: fill; stroke-width: 0px; fill: rgb(223, 41, 53);" d="M 121.276 65.597 L 142.396 86.03 L 130.917 96.818 L 120.816 86.03 L 120.816 135.616 L 100.155 135.616 L 100.155 76.157 L 121.276 65.597 Z"/>
  </g>
  <path d="M 73.78 15.783 L 80.564 15.783 L 83.7 50.215 L 83.828 50.215 L 87.156 15.783 L 94.836 15.783 L 98.164 50.215 L 98.292 50.215 L 101.428 15.783 L 107.508 15.783 L 102.964 60.583 L 94.196 60.583 L 90.996 30.375 L 90.868 30.375 L 87.668 60.583 L 78.324 60.583 Z" transform="matrix(0.99771, 0, 0, 1, 0.00916, 0)" style="fill: rgb(51, 51, 51); white-space: pre;"/>
  <path d="M 111.079 15.783 L 130.279 15.783 L 130.279 22.183 L 118.119 22.183 L 118.119 34.023 L 127.783 34.023 L 127.783 40.423 L 118.119 40.423 L 118.119 54.183 L 130.279 54.183 L 130.279 60.583 L 111.079 60.583 Z" transform="matrix(0.99771, 0, 0, 1, 0.00916, 0)" style="fill: rgb(51, 51, 51); white-space: pre;"/>
  <path d="M 139.748 15.783 L 149.284 15.783 L 156.58 60.583 L 149.54 60.583 L 148.26 51.687 L 148.26 51.815 L 140.26 51.815 L 138.98 60.583 L 132.452 60.583 Z M 147.428 45.735 L 144.292 23.591 L 144.164 23.591 L 141.092 45.735 Z" transform="matrix(0.99771, 0, 0, 1, 0.00916, 0)" style="fill: rgb(51, 51, 51); white-space: pre;"/>
  <path d="M 159.978 15.783 L 170.41 15.783 Q 175.85 15.783 178.346 18.311 Q 180.842 20.839 180.842 26.087 L 180.842 28.839 Q 180.842 35.815 176.234 37.671 L 176.234 37.799 Q 178.794 38.567 179.85 40.935 Q 180.906 43.303 180.906 47.271 L 180.906 55.143 Q 180.906 57.063 181.034 58.247 Q 181.162 59.431 181.674 60.583 L 174.506 60.583 Q 174.122 59.495 173.994 58.535 Q 173.866 57.575 173.866 55.079 L 173.866 46.887 Q 173.866 43.815 172.874 42.599 Q 171.882 41.383 169.45 41.383 L 167.018 41.383 L 167.018 60.583 L 159.978 60.583 Z M 169.578 34.983 Q 171.69 34.983 172.746 33.895 Q 173.802 32.807 173.802 30.247 L 173.802 26.791 Q 173.802 24.359 172.938 23.271 Q 172.074 22.183 170.218 22.183 L 167.018 22.183 L 167.018 34.983 Z" transform="matrix(0.99771, 0, 0, 1, 0.00916, 0)" style="fill: rgb(51, 51, 51); white-space: pre;"/>
  <path d="M 193.438 40.679 L 184.862 40.679 L 184.862 35.687 L 193.438 35.687 L 193.438 27.047 L 198.43 27.047 L 198.43 35.687 L 207.006 35.687 L 207.006 40.679 L 198.43 40.679 L 198.43 49.447 L 193.438 49.447 Z" transform="matrix(0.99771, 0, 0, 1, 0.00916, 0)" style="fill: rgb(51, 51, 51); white-space: pre;"/>
  <path d="M 219.045 40.679 L 210.469 40.679 L 210.469 35.687 L 219.045 35.687 L 219.045 27.047 L 224.037 27.047 L 224.037 35.687 L 232.613 35.687 L 232.613 40.679 L 224.037 40.679 L 224.037 49.447 L 219.045 49.447 Z" transform="matrix(0.99771, 0, 0, 1, 0.00916, 0)" style="fill: rgb(51, 51, 51); white-space: pre;"/>
</svg>